<svg xmlns="http://www.w3.org/2000/svg" width="624" height="428" viewBox="0 0 624 428"><defs><linearGradient id="bg" x2="0" y2="1"><stop stop-color="#255b82"/><stop offset="1" stop-color="#92b6c5"/></linearGradient></defs><rect width="624" height="428" fill="url(#bg)"/><path d="M0 355h624v73H0Z" fill="#c4b4a2"/><path d="M0 375h624M0 405h624" stroke="#a99885"/><rect x="86" y="43" width="452" height="94" rx="4" fill="#e9eeec"/><text x="312" y="83" text-anchor="middle" font-family="Arial,sans-serif" font-size="23" font-weight="900" letter-spacing="5" fill="#15392f">PAI.LEAGUE</text><text x="312" y="114" text-anchor="middle" font-family="sans-serif" font-size="17" letter-spacing="8" fill="#15392f">新 赛 季 · 新 相 遇</text><g transform="translate(27 170)"><path d="M-5 68c0-20 8-31 27-31s27 11 27 31" fill="#253f31"/><path d="m14 40 8 9 8-9-5 22h-7Z" fill="#eee"/><ellipse cx="22" cy="19" rx="17" ry="21" fill="#ecc4a4"/><path d="M5 17C1-9 42-12 40 15l-7-8-9 7-17-1Z" fill="#292523"/><path d="M14 19h3m11 0h3" stroke="#3b302d" stroke-width="2"/><path d="M19 29q4 3 8 0" fill="none" stroke="#9b6252"/><path d="M9 68v52m26-52v52" stroke="#333" stroke-width="13"/></g><g transform="translate(87 170)"><path d="M-5 68c0-20 8-31 27-31s27 11 27 31" fill="#8b3538"/><path d="m14 40 8 9 8-9-5 22h-7Z" fill="#eee"/><ellipse cx="22" cy="19" rx="17" ry="21" fill="#d9a987"/><path d="M5 17C1-9 42-12 40 15l-7-8-9 7-17-1Z" fill="#292523"/><path d="M14 19h3m11 0h3" stroke="#3b302d" stroke-width="2"/><path d="M19 29q4 3 8 0" fill="none" stroke="#9b6252"/><path d="M9 68v52m26-52v52" stroke="#333" stroke-width="13"/></g><g transform="translate(147 170)"><path d="M-5 68c0-20 8-31 27-31s27 11 27 31" fill="#233851"/><path d="m14 40 8 9 8-9-5 22h-7Z" fill="#eee"/><ellipse cx="22" cy="19" rx="17" ry="21" fill="#efc9b2"/><path d="M5 17C1-9 42-12 40 15l-7-8-9 7-17-1Z" fill="#292523"/><path d="M14 19h3m11 0h3" stroke="#3b302d" stroke-width="2"/><path d="M19 29q4 3 8 0" fill="none" stroke="#9b6252"/><path d="M9 68v52m26-52v52" stroke="#333" stroke-width="13"/></g><g transform="translate(207 170)"><path d="M-5 68c0-20 8-31 27-31s27 11 27 31" fill="#625934"/><path d="m14 40 8 9 8-9-5 22h-7Z" fill="#eee"/><ellipse cx="22" cy="19" rx="17" ry="21" fill="#ecc4a4"/><path d="M5 17C1-9 42-12 40 15l-7-8-9 7-17-1Z" fill="#292523"/><path d="M14 19h3m11 0h3" stroke="#3b302d" stroke-width="2"/><path d="M19 29q4 3 8 0" fill="none" stroke="#9b6252"/><path d="M9 68v52m26-52v52" stroke="#333" stroke-width="13"/></g><g transform="translate(267 170)"><path d="M-5 68c0-20 8-31 27-31s27 11 27 31" fill="#49546b"/><path d="m14 40 8 9 8-9-5 22h-7Z" fill="#eee"/><ellipse cx="22" cy="19" rx="17" ry="21" fill="#d9a987"/><path d="M5 17C1-9 42-12 40 15l-7-8-9 7-17-1Z" fill="#292523"/><path d="M14 19h3m11 0h3" stroke="#3b302d" stroke-width="2"/><path d="M19 29q4 3 8 0" fill="none" stroke="#9b6252"/><path d="M9 68v52m26-52v52" stroke="#333" stroke-width="13"/></g><g transform="translate(327 170)"><path d="M-5 68c0-20 8-31 27-31s27 11 27 31" fill="#3d5466"/><path d="m14 40 8 9 8-9-5 22h-7Z" fill="#eee"/><ellipse cx="22" cy="19" rx="17" ry="21" fill="#efc9b2"/><path d="M5 17C1-9 42-12 40 15l-7-8-9 7-17-1Z" fill="#292523"/><path d="M14 19h3m11 0h3" stroke="#3b302d" stroke-width="2"/><path d="M19 29q4 3 8 0" fill="none" stroke="#9b6252"/><path d="M9 68v52m26-52v52" stroke="#333" stroke-width="13"/></g><g transform="translate(387 170)"><path d="M-5 68c0-20 8-31 27-31s27 11 27 31" fill="#34765b"/><path d="m14 40 8 9 8-9-5 22h-7Z" fill="#eee"/><ellipse cx="22" cy="19" rx="17" ry="21" fill="#ecc4a4"/><path d="M5 17C1-9 42-12 40 15l-7-8-9 7-17-1Z" fill="#292523"/><path d="M14 19h3m11 0h3" stroke="#3b302d" stroke-width="2"/><path d="M19 29q4 3 8 0" fill="none" stroke="#9b6252"/><path d="M9 68v52m26-52v52" stroke="#333" stroke-width="13"/></g><g transform="translate(447 170)"><path d="M-5 68c0-20 8-31 27-31s27 11 27 31" fill="#813e63"/><path d="m14 40 8 9 8-9-5 22h-7Z" fill="#eee"/><ellipse cx="22" cy="19" rx="17" ry="21" fill="#d9a987"/><path d="M5 17C1-9 42-12 40 15l-7-8-9 7-17-1Z" fill="#292523"/><path d="M14 19h3m11 0h3" stroke="#3b302d" stroke-width="2"/><path d="M19 29q4 3 8 0" fill="none" stroke="#9b6252"/><path d="M9 68v52m26-52v52" stroke="#333" stroke-width="13"/></g><g transform="translate(507 170)"><path d="M-5 68c0-20 8-31 27-31s27 11 27 31" fill="#282e35"/><path d="m14 40 8 9 8-9-5 22h-7Z" fill="#eee"/><ellipse cx="22" cy="19" rx="17" ry="21" fill="#efc9b2"/><path d="M5 17C1-9 42-12 40 15l-7-8-9 7-17-1Z" fill="#292523"/><path d="M14 19h3m11 0h3" stroke="#3b302d" stroke-width="2"/><path d="M19 29q4 3 8 0" fill="none" stroke="#9b6252"/><path d="M9 68v52m26-52v52" stroke="#333" stroke-width="13"/></g><g transform="translate(567 170)"><path d="M-5 68c0-20 8-31 27-31s27 11 27 31" fill="#4d6e4d"/><path d="m14 40 8 9 8-9-5 22h-7Z" fill="#eee"/><ellipse cx="22" cy="19" rx="17" ry="21" fill="#ecc4a4"/><path d="M5 17C1-9 42-12 40 15l-7-8-9 7-17-1Z" fill="#292523"/><path d="M14 19h3m11 0h3" stroke="#3b302d" stroke-width="2"/><path d="M19 29q4 3 8 0" fill="none" stroke="#9b6252"/><path d="M9 68v52m26-52v52" stroke="#333" stroke-width="13"/></g><g transform="translate(47 257)"><path d="M-5 68c0-20 8-31 27-31s27 11 27 31" fill="#625934"/><path d="m14 40 8 9 8-9-5 22h-7Z" fill="#eee"/><ellipse cx="22" cy="19" rx="17" ry="21" fill="#ecc4a4"/><path d="M5 17C1-9 42-12 40 15l-7-8-9 7-17-1Z" fill="#292523"/><path d="M14 19h3m11 0h3" stroke="#3b302d" stroke-width="2"/><path d="M19 29q4 3 8 0" fill="none" stroke="#9b6252"/><path d="M9 68v52m26-52v52" stroke="#333" stroke-width="13"/></g><g transform="translate(107 257)"><path d="M-5 68c0-20 8-31 27-31s27 11 27 31" fill="#49546b"/><path d="m14 40 8 9 8-9-5 22h-7Z" fill="#eee"/><ellipse cx="22" cy="19" rx="17" ry="21" fill="#d9a987"/><path d="M5 17C1-9 42-12 40 15l-7-8-9 7-17-1Z" fill="#292523"/><path d="M14 19h3m11 0h3" stroke="#3b302d" stroke-width="2"/><path d="M19 29q4 3 8 0" fill="none" stroke="#9b6252"/><path d="M9 68v52m26-52v52" stroke="#333" stroke-width="13"/></g><g transform="translate(167 257)"><path d="M-5 68c0-20 8-31 27-31s27 11 27 31" fill="#3d5466"/><path d="m14 40 8 9 8-9-5 22h-7Z" fill="#eee"/><ellipse cx="22" cy="19" rx="17" ry="21" fill="#efc9b2"/><path d="M5 17C1-9 42-12 40 15l-7-8-9 7-17-1Z" fill="#292523"/><path d="M14 19h3m11 0h3" stroke="#3b302d" stroke-width="2"/><path d="M19 29q4 3 8 0" fill="none" stroke="#9b6252"/><path d="M9 68v52m26-52v52" stroke="#333" stroke-width="13"/></g><g transform="translate(227 257)"><path d="M-5 68c0-20 8-31 27-31s27 11 27 31" fill="#34765b"/><path d="m14 40 8 9 8-9-5 22h-7Z" fill="#eee"/><ellipse cx="22" cy="19" rx="17" ry="21" fill="#ecc4a4"/><path d="M5 17C1-9 42-12 40 15l-7-8-9 7-17-1Z" fill="#292523"/><path d="M14 19h3m11 0h3" stroke="#3b302d" stroke-width="2"/><path d="M19 29q4 3 8 0" fill="none" stroke="#9b6252"/><path d="M9 68v52m26-52v52" stroke="#333" stroke-width="13"/></g><g transform="translate(287 257)"><path d="M-5 68c0-20 8-31 27-31s27 11 27 31" fill="#813e63"/><path d="m14 40 8 9 8-9-5 22h-7Z" fill="#eee"/><ellipse cx="22" cy="19" rx="17" ry="21" fill="#d9a987"/><path d="M5 17C1-9 42-12 40 15l-7-8-9 7-17-1Z" fill="#292523"/><path d="M14 19h3m11 0h3" stroke="#3b302d" stroke-width="2"/><path d="M19 29q4 3 8 0" fill="none" stroke="#9b6252"/><path d="M9 68v52m26-52v52" stroke="#333" stroke-width="13"/></g><g transform="translate(347 257)"><path d="M-5 68c0-20 8-31 27-31s27 11 27 31" fill="#282e35"/><path d="m14 40 8 9 8-9-5 22h-7Z" fill="#eee"/><ellipse cx="22" cy="19" rx="17" ry="21" fill="#efc9b2"/><path d="M5 17C1-9 42-12 40 15l-7-8-9 7-17-1Z" fill="#292523"/><path d="M14 19h3m11 0h3" stroke="#3b302d" stroke-width="2"/><path d="M19 29q4 3 8 0" fill="none" stroke="#9b6252"/><path d="M9 68v52m26-52v52" stroke="#333" stroke-width="13"/></g><g transform="translate(407 257)"><path d="M-5 68c0-20 8-31 27-31s27 11 27 31" fill="#4d6e4d"/><path d="m14 40 8 9 8-9-5 22h-7Z" fill="#eee"/><ellipse cx="22" cy="19" rx="17" ry="21" fill="#ecc4a4"/><path d="M5 17C1-9 42-12 40 15l-7-8-9 7-17-1Z" fill="#292523"/><path d="M14 19h3m11 0h3" stroke="#3b302d" stroke-width="2"/><path d="M19 29q4 3 8 0" fill="none" stroke="#9b6252"/><path d="M9 68v52m26-52v52" stroke="#333" stroke-width="13"/></g><g transform="translate(467 257)"><path d="M-5 68c0-20 8-31 27-31s27 11 27 31" fill="#253f31"/><path d="m14 40 8 9 8-9-5 22h-7Z" fill="#eee"/><ellipse cx="22" cy="19" rx="17" ry="21" fill="#d9a987"/><path d="M5 17C1-9 42-12 40 15l-7-8-9 7-17-1Z" fill="#292523"/><path d="M14 19h3m11 0h3" stroke="#3b302d" stroke-width="2"/><path d="M19 29q4 3 8 0" fill="none" stroke="#9b6252"/><path d="M9 68v52m26-52v52" stroke="#333" stroke-width="13"/></g><g transform="translate(527 257)"><path d="M-5 68c0-20 8-31 27-31s27 11 27 31" fill="#8b3538"/><path d="m14 40 8 9 8-9-5 22h-7Z" fill="#eee"/><ellipse cx="22" cy="19" rx="17" ry="21" fill="#efc9b2"/><path d="M5 17C1-9 42-12 40 15l-7-8-9 7-17-1Z" fill="#292523"/><path d="M14 19h3m11 0h3" stroke="#3b302d" stroke-width="2"/><path d="M19 29q4 3 8 0" fill="none" stroke="#9b6252"/><path d="M9 68v52m26-52v52" stroke="#333" stroke-width="13"/></g><rect x="248" y="352" width="128" height="48" rx="3" fill="#1c593e"/><text x="312" y="383" text-anchor="middle" fill="white" font-family="Arial,sans-serif" font-size="17" font-weight="700" letter-spacing="2">TOGETHER</text></svg>